
<mxfile host="app.diagrams.net" modified="2023-04-20T04:19:10.835Z" agent="Mozilla/5.0 (Macintosh; Intel Mac OS X 10_15_7) AppleWebKit/537.36 (KHTML, like Gecko) Chrome/112.0.0.0 Safari/537.36" etag="PrIDsmmRFE0Q2V_BDtZS" version="21.1.8" type="github">
  <diagram id="C5RBs43oDa-KdzZeNtuy" name="Page-1">
    <mxGraphModel dx="1207" dy="688" grid="1" gridSize="10" guides="1" tooltips="1" connect="1" arrows="1" fold="1" page="1" pageScale="1" pageWidth="827" pageHeight="1169" math="0" shadow="0">
      <root>
        <mxCell id="WIyWlLk6GJQsqaUBKTNV-0" />
        <mxCell id="WIyWlLk6GJQsqaUBKTNV-1" parent="WIyWlLk6GJQsqaUBKTNV-0" />
        <mxCell id="djNf9MLD9e41juZj_jGM-5" value="" style="edgeStyle=orthogonalEdgeStyle;rounded=0;orthogonalLoop=1;jettySize=auto;html=1;" edge="1" parent="WIyWlLk6GJQsqaUBKTNV-1" source="djNf9MLD9e41juZj_jGM-0">
          <mxGeometry relative="1" as="geometry">
            <mxPoint x="414" y="170" as="targetPoint" />
          </mxGeometry>
        </mxCell>
        <mxCell id="djNf9MLD9e41juZj_jGM-9" value="" style="edgeStyle=orthogonalEdgeStyle;rounded=0;orthogonalLoop=1;jettySize=auto;html=1;" edge="1" parent="WIyWlLk6GJQsqaUBKTNV-1" source="djNf9MLD9e41juZj_jGM-0" target="djNf9MLD9e41juZj_jGM-3">
          <mxGeometry relative="1" as="geometry" />
        </mxCell>
        <mxCell id="djNf9MLD9e41juZj_jGM-11" value="" style="edgeStyle=orthogonalEdgeStyle;rounded=0;orthogonalLoop=1;jettySize=auto;html=1;" edge="1" parent="WIyWlLk6GJQsqaUBKTNV-1" source="djNf9MLD9e41juZj_jGM-0" target="djNf9MLD9e41juZj_jGM-2">
          <mxGeometry relative="1" as="geometry" />
        </mxCell>
        <mxCell id="djNf9MLD9e41juZj_jGM-0" value="What would you like to have" style="shape=parallelogram;perimeter=parallelogramPerimeter;whiteSpace=wrap;html=1;fixedSize=1;" vertex="1" parent="WIyWlLk6GJQsqaUBKTNV-1">
          <mxGeometry x="354" y="60" width="120" height="60" as="geometry" />
        </mxCell>
        <mxCell id="djNf9MLD9e41juZj_jGM-2" value="Print the current resources available" style="rounded=1;whiteSpace=wrap;html=1;" vertex="1" parent="WIyWlLk6GJQsqaUBKTNV-1">
          <mxGeometry x="140" y="60" width="120" height="60" as="geometry" />
        </mxCell>
        <mxCell id="djNf9MLD9e41juZj_jGM-3" value="End" style="rounded=1;whiteSpace=wrap;html=1;" vertex="1" parent="WIyWlLk6GJQsqaUBKTNV-1">
          <mxGeometry x="580" y="60" width="120" height="60" as="geometry" />
        </mxCell>
        <mxCell id="djNf9MLD9e41juZj_jGM-6" value="if enter any from drinks" style="text;html=1;align=center;verticalAlign=middle;resizable=0;points=[];autosize=1;strokeColor=none;fillColor=none;" vertex="1" parent="WIyWlLk6GJQsqaUBKTNV-1">
          <mxGeometry x="414" y="130" width="150" height="30" as="geometry" />
        </mxCell>
        <mxCell id="djNf9MLD9e41juZj_jGM-10" value="Off" style="text;html=1;align=center;verticalAlign=middle;resizable=0;points=[];autosize=1;strokeColor=none;fillColor=none;" vertex="1" parent="WIyWlLk6GJQsqaUBKTNV-1">
          <mxGeometry x="500" y="68" width="40" height="30" as="geometry" />
        </mxCell>
        <mxCell id="djNf9MLD9e41juZj_jGM-12" value="Report" style="text;html=1;align=center;verticalAlign=middle;resizable=0;points=[];autosize=1;strokeColor=none;fillColor=none;" vertex="1" parent="WIyWlLk6GJQsqaUBKTNV-1">
          <mxGeometry x="280" y="68" width="60" height="30" as="geometry" />
        </mxCell>
        <mxCell id="djNf9MLD9e41juZj_jGM-15" value="" style="edgeStyle=orthogonalEdgeStyle;rounded=0;orthogonalLoop=1;jettySize=auto;html=1;" edge="1" parent="WIyWlLk6GJQsqaUBKTNV-1" source="djNf9MLD9e41juZj_jGM-13" target="djNf9MLD9e41juZj_jGM-14">
          <mxGeometry relative="1" as="geometry" />
        </mxCell>
        <mxCell id="djNf9MLD9e41juZj_jGM-18" value="" style="edgeStyle=orthogonalEdgeStyle;rounded=0;orthogonalLoop=1;jettySize=auto;html=1;" edge="1" parent="WIyWlLk6GJQsqaUBKTNV-1" source="djNf9MLD9e41juZj_jGM-13" target="djNf9MLD9e41juZj_jGM-17">
          <mxGeometry relative="1" as="geometry" />
        </mxCell>
        <mxCell id="djNf9MLD9e41juZj_jGM-13" value="check if resource available" style="rhombus;whiteSpace=wrap;html=1;" vertex="1" parent="WIyWlLk6GJQsqaUBKTNV-1">
          <mxGeometry x="374" y="170" width="80" height="80" as="geometry" />
        </mxCell>
        <mxCell id="djNf9MLD9e41juZj_jGM-22" value="" style="edgeStyle=orthogonalEdgeStyle;rounded=0;orthogonalLoop=1;jettySize=auto;html=1;" edge="1" parent="WIyWlLk6GJQsqaUBKTNV-1" source="djNf9MLD9e41juZj_jGM-14" target="djNf9MLD9e41juZj_jGM-21">
          <mxGeometry relative="1" as="geometry" />
        </mxCell>
        <mxCell id="djNf9MLD9e41juZj_jGM-14" value="Coin Inserting" style="rounded=1;whiteSpace=wrap;html=1;" vertex="1" parent="WIyWlLk6GJQsqaUBKTNV-1">
          <mxGeometry x="354" y="280" width="120" height="60" as="geometry" />
        </mxCell>
        <mxCell id="djNf9MLD9e41juZj_jGM-16" value="Yes" style="text;html=1;align=center;verticalAlign=middle;resizable=0;points=[];autosize=1;strokeColor=none;fillColor=none;" vertex="1" parent="WIyWlLk6GJQsqaUBKTNV-1">
          <mxGeometry x="410" y="248" width="40" height="30" as="geometry" />
        </mxCell>
        <mxCell id="djNf9MLD9e41juZj_jGM-20" style="edgeStyle=orthogonalEdgeStyle;rounded=0;orthogonalLoop=1;jettySize=auto;html=1;exitX=1;exitY=0.5;exitDx=0;exitDy=0;entryX=0.5;entryY=0;entryDx=0;entryDy=0;" edge="1" parent="WIyWlLk6GJQsqaUBKTNV-1" source="djNf9MLD9e41juZj_jGM-17" target="djNf9MLD9e41juZj_jGM-0">
          <mxGeometry relative="1" as="geometry">
            <mxPoint x="770" y="20" as="targetPoint" />
            <Array as="points">
              <mxPoint x="780" y="210" />
              <mxPoint x="780" y="40" />
              <mxPoint x="414" y="40" />
            </Array>
          </mxGeometry>
        </mxCell>
        <mxCell id="djNf9MLD9e41juZj_jGM-17" value="Show resource not available" style="rounded=1;whiteSpace=wrap;html=1;" vertex="1" parent="WIyWlLk6GJQsqaUBKTNV-1">
          <mxGeometry x="540" y="180" width="120" height="60" as="geometry" />
        </mxCell>
        <mxCell id="djNf9MLD9e41juZj_jGM-19" value="No" style="text;html=1;align=center;verticalAlign=middle;resizable=0;points=[];autosize=1;strokeColor=none;fillColor=none;" vertex="1" parent="WIyWlLk6GJQsqaUBKTNV-1">
          <mxGeometry x="470" y="188" width="40" height="30" as="geometry" />
        </mxCell>
        <mxCell id="djNf9MLD9e41juZj_jGM-25" value="" style="edgeStyle=orthogonalEdgeStyle;rounded=0;orthogonalLoop=1;jettySize=auto;html=1;" edge="1" parent="WIyWlLk6GJQsqaUBKTNV-1" source="djNf9MLD9e41juZj_jGM-21" target="djNf9MLD9e41juZj_jGM-24">
          <mxGeometry relative="1" as="geometry" />
        </mxCell>
        <mxCell id="djNf9MLD9e41juZj_jGM-26" value="" style="edgeStyle=orthogonalEdgeStyle;rounded=0;orthogonalLoop=1;jettySize=auto;html=1;" edge="1" parent="WIyWlLk6GJQsqaUBKTNV-1" source="djNf9MLD9e41juZj_jGM-21" target="djNf9MLD9e41juZj_jGM-23">
          <mxGeometry relative="1" as="geometry" />
        </mxCell>
        <mxCell id="djNf9MLD9e41juZj_jGM-21" value="&amp;nbsp;check if the sufficient" style="rhombus;whiteSpace=wrap;html=1;" vertex="1" parent="WIyWlLk6GJQsqaUBKTNV-1">
          <mxGeometry x="374" y="380" width="80" height="80" as="geometry" />
        </mxCell>
        <mxCell id="djNf9MLD9e41juZj_jGM-28" style="edgeStyle=orthogonalEdgeStyle;rounded=0;orthogonalLoop=1;jettySize=auto;html=1;" edge="1" parent="WIyWlLk6GJQsqaUBKTNV-1" source="djNf9MLD9e41juZj_jGM-23">
          <mxGeometry relative="1" as="geometry">
            <mxPoint x="780" y="210" as="targetPoint" />
          </mxGeometry>
        </mxCell>
        <mxCell id="djNf9MLD9e41juZj_jGM-23" value="Print insufficient money and refund" style="rounded=1;whiteSpace=wrap;html=1;" vertex="1" parent="WIyWlLk6GJQsqaUBKTNV-1">
          <mxGeometry x="564" y="390" width="120" height="60" as="geometry" />
        </mxCell>
        <mxCell id="djNf9MLD9e41juZj_jGM-32" value="" style="edgeStyle=orthogonalEdgeStyle;rounded=0;orthogonalLoop=1;jettySize=auto;html=1;" edge="1" parent="WIyWlLk6GJQsqaUBKTNV-1" source="djNf9MLD9e41juZj_jGM-24" target="djNf9MLD9e41juZj_jGM-31">
          <mxGeometry relative="1" as="geometry" />
        </mxCell>
        <mxCell id="djNf9MLD9e41juZj_jGM-24" value="Prepare coffee, reduce the resource" style="rounded=1;whiteSpace=wrap;html=1;" vertex="1" parent="WIyWlLk6GJQsqaUBKTNV-1">
          <mxGeometry x="354" y="500" width="120" height="60" as="geometry" />
        </mxCell>
        <mxCell id="djNf9MLD9e41juZj_jGM-27" value="No" style="text;html=1;align=center;verticalAlign=middle;resizable=0;points=[];autosize=1;strokeColor=none;fillColor=none;" vertex="1" parent="WIyWlLk6GJQsqaUBKTNV-1">
          <mxGeometry x="470" y="388" width="40" height="30" as="geometry" />
        </mxCell>
        <mxCell id="djNf9MLD9e41juZj_jGM-29" value="Yes" style="text;html=1;align=center;verticalAlign=middle;resizable=0;points=[];autosize=1;strokeColor=none;fillColor=none;" vertex="1" parent="WIyWlLk6GJQsqaUBKTNV-1">
          <mxGeometry x="370" y="460" width="40" height="30" as="geometry" />
        </mxCell>
        <mxCell id="djNf9MLD9e41juZj_jGM-33" style="edgeStyle=orthogonalEdgeStyle;rounded=0;orthogonalLoop=1;jettySize=auto;html=1;" edge="1" parent="WIyWlLk6GJQsqaUBKTNV-1" source="djNf9MLD9e41juZj_jGM-31">
          <mxGeometry relative="1" as="geometry">
            <mxPoint x="780" y="420" as="targetPoint" />
          </mxGeometry>
        </mxCell>
        <mxCell id="djNf9MLD9e41juZj_jGM-31" value="Enjoy you coffee" style="rounded=1;whiteSpace=wrap;html=1;" vertex="1" parent="WIyWlLk6GJQsqaUBKTNV-1">
          <mxGeometry x="354" y="610" width="120" height="60" as="geometry" />
        </mxCell>
      </root>
    </mxGraphModel>
  </diagram>
</mxfile>
